<svg width="10" height="11" viewBox="0 0 10 11" fill="none" xmlns="http://www.w3.org/2000/svg">
<path d="M9.77381 5.39639C9.77381 7.97182 7.686 10.0596 5.11057 10.0596C2.53513 10.0596 0.447327 7.97182 0.447327 5.39639C0.447327 2.82095 2.53513 0.733147 5.11057 0.733147C7.686 0.733147 9.77381 2.82095 9.77381 5.39639Z" fill="#C4C4C4"/>
<circle cx="4.86057" cy="5.39638" r="4.66324" fill="#F7F7F7"/>
<path d="M3.61057 2.39639H6.61057" stroke="black" stroke-width="0.75" stroke-linecap="round"/>
<path d="M3.61057 2.39639L3.61057 5.39639" stroke="black" stroke-width="0.75" stroke-linecap="round"/>
<path d="M3.61057 5.39639L3.61057 8.39639" stroke="black" stroke-width="0.75"/>
<path d="M3.61057 5.39639H5.61057" stroke="black" stroke-width="0.75" stroke-linecap="round"/>
<circle cx="5.61057" cy="5.39639" r="0.5" fill="#E53C5A"/>
<path d="M4.11057 8.39639C4.11057 8.67253 3.88671 8.89639 3.61057 8.89639C3.33442 8.89639 3.11057 8.67253 3.11057 8.39639C3.11057 8.12024 3.33442 7.89639 3.61057 7.89639C3.88671 7.89639 4.11057 8.12024 4.11057 8.39639Z" fill="#C4C4C4"/>
<path d="M3.98557 8.39639C3.98557 8.60349 3.81767 8.77139 3.61057 8.77139C3.40346 8.77139 3.23557 8.60349 3.23557 8.39639C3.23557 8.18928 3.40346 8.02139 3.61057 8.02139C3.81767 8.02139 3.98557 8.18928 3.98557 8.39639Z" fill="#DDDDDD"/>
<circle cx="3.61057" cy="2.39639" r="0.5" fill="#E53C5A"/>
</svg>
