<svg width="32" height="10" viewBox="0 0 32 10" fill="none" xmlns="http://www.w3.org/2000/svg">
<rect x="1" y="1" width="31" height="9" fill="#C4C4C4"/>
<rect width="31" height="9" fill="#F6F6F6"/>
<path d="M31 0L32 1V10H31V0Z" fill="#AEAEAE"/>
<path d="M0 9H31L32 10H1L0 9Z" fill="#C4C4C4"/>
<path d="M25.5 4.5H28.5" stroke="black" stroke-width="0.75" stroke-linecap="round"/>
<path d="M25.5 7.5V4.5" stroke="black" stroke-width="0.75" stroke-linecap="round"/>
<circle cx="25.5" cy="7.5" r="0.5" fill="#C4C4C4"/>
<circle cx="25.5" cy="7.5" r="0.375" fill="#DDDDDD"/>
<path d="M28.5 4.5V7.5" stroke="black" stroke-width="0.75" stroke-linecap="round"/>
<circle cx="28.5" cy="4.5" r="0.5" fill="#E53C5A"/>
<path d="M20.5 7.5V4.5" stroke="black" stroke-width="0.75" stroke-linecap="round"/>
<path d="M23.5 7.5H20.5" stroke="black" stroke-width="0.75" stroke-linecap="round"/>
<circle cx="20.5" cy="7.5" r="0.5" fill="#C4C4C4"/>
<circle cx="20.5" cy="7.5" r="0.375" fill="#DDDDDD"/>
<path d="M23.5 4.5V7.5" stroke="black" stroke-width="0.75" stroke-linecap="round"/>
<path d="M20.5 4.5H23" stroke="black" stroke-width="0.75" stroke-linecap="round"/>
<circle cx="23.5" cy="4.5" r="0.5" fill="#E53C5A"/>
<path d="M16.5 7.5V3.5M16.5 2.5V3.5M16.5 3.5H17.5" stroke="black" stroke-width="0.75" stroke-linecap="round"/>
<path d="M16.5 7.5H18.5" stroke="black" stroke-width="0.75" stroke-linecap="round"/>
<circle cx="16.5" cy="7.5" r="0.5" fill="#E53C5A"/>
<path d="M11.5 7.5H14.5" stroke="black" stroke-width="0.75"/>
<path d="M14.5 7.5V4.5" stroke="black" stroke-width="0.75" stroke-linecap="round"/>
<path d="M11.5 4.5V7.5" stroke="black" stroke-width="0.75" stroke-linecap="round"/>
<circle cx="14.5" cy="7.5" r="0.5" fill="#C4C4C4"/>
<circle cx="14.5" cy="7.5" r="0.375" fill="#DDDDDD"/>
<path d="M12 4.5C12 4.77614 11.7761 5 11.5 5C11.2239 5 11 4.77614 11 4.5C11 4.22386 11.2239 4 11.5 4C11.7761 4 12 4.22386 12 4.5Z" fill="#E53C5A"/>
<path d="M6.5 6H9.5" stroke="black" stroke-width="0.75" stroke-linecap="round"/>
<path d="M6.5 4.5H9.5" stroke="black" stroke-width="0.75" stroke-linecap="round"/>
<path d="M6.5 4.5V7.5" stroke="black" stroke-width="0.75" stroke-linecap="round"/>
<circle cx="6.5" cy="7.5" r="0.5" fill="#C4C4C4"/>
<circle cx="6.5" cy="7.5" r="0.372793" fill="#DDDDDD"/>
<path d="M9.5 4.5V7.5" stroke="black" stroke-width="0.75" stroke-linecap="round"/>
<circle cx="9.5" cy="4.5" r="0.5" fill="#E53C5A"/>
<path d="M2.5 1.5H5.5" stroke="black" stroke-width="0.75" stroke-linecap="round"/>
<path d="M2.5 1.5L2.5 4.5" stroke="black" stroke-width="0.75" stroke-linecap="round"/>
<path d="M2.5 4.5L2.5 7.5" stroke="black" stroke-width="0.75"/>
<path d="M2.5 4.5H4.5" stroke="black" stroke-width="0.75" stroke-linecap="round"/>
<circle cx="4.5" cy="4.5" r="0.5" fill="#E53C5A"/>
<path d="M3 7.5C3 7.77614 2.77614 8 2.5 8C2.22386 8 2 7.77614 2 7.5C2 7.22386 2.22386 7 2.5 7C2.77614 7 3 7.22386 3 7.5Z" fill="#C4C4C4"/>
<path d="M2.875 7.5C2.875 7.70711 2.70711 7.875 2.5 7.875C2.29289 7.875 2.125 7.70711 2.125 7.5C2.125 7.29289 2.29289 7.125 2.5 7.125C2.70711 7.125 2.875 7.29289 2.875 7.5Z" fill="#DDDDDD"/>
<circle cx="2.5" cy="1.5" r="0.5" fill="#E53C5A"/>
</svg>
